<mxfile host="app.diagrams.net" modified="2023-12-23T14:28:20.037Z" agent="Mozilla/5.0 (Macintosh; Intel Mac OS X 10_15_7) AppleWebKit/537.36 (KHTML, like Gecko) Chrome/117.0.0.0 Safari/537.36 OPR/103.0.0.0" etag="wA0UFfY5lELHH-gbJgJd" version="21.1.7" type="device">
  <diagram name="Page-1" id="lArKV6KMiRFes9QA_HRN">
    <mxGraphModel dx="1440" dy="1094" grid="1" gridSize="10" guides="1" tooltips="1" connect="1" arrows="1" fold="1" page="1" pageScale="1" pageWidth="827" pageHeight="1169" math="0" shadow="0">
      <root>
        <mxCell id="0" />
        <mxCell id="1" parent="0" />
        <mxCell id="flESJ9DVj2xyThcato4h-169" value="broadcaster" style="shape=hexagon;perimeter=hexagonPerimeter2;fixedSize=1;strokeWidth=2;whiteSpace=wrap;" parent="1" vertex="1">
          <mxGeometry x="1100" y="20" width="117" height="34" as="geometry" />
        </mxCell>
        <mxCell id="flESJ9DVj2xyThcato4h-170" value="ls" style="whiteSpace=wrap;strokeWidth=2;" parent="1" vertex="1">
          <mxGeometry x="401" y="104" width="26" height="34" as="geometry" />
        </mxCell>
        <mxCell id="flESJ9DVj2xyThcato4h-171" value="bv" style="whiteSpace=wrap;strokeWidth=2;" parent="1" vertex="1">
          <mxGeometry x="816" y="104" width="32" height="34" as="geometry" />
        </mxCell>
        <mxCell id="flESJ9DVj2xyThcato4h-172" value="dc" style="whiteSpace=wrap;strokeWidth=2;" parent="1" vertex="1">
          <mxGeometry x="1500" y="120" width="32" height="34" as="geometry" />
        </mxCell>
        <mxCell id="flESJ9DVj2xyThcato4h-173" value="br" style="whiteSpace=wrap;strokeWidth=2;" parent="1" vertex="1">
          <mxGeometry x="1920" y="104" width="30" height="34" as="geometry" />
        </mxCell>
        <mxCell id="flESJ9DVj2xyThcato4h-174" value="zl" style="whiteSpace=wrap;strokeWidth=2;" parent="1" vertex="1">
          <mxGeometry x="399" y="415" width="27" height="34" as="geometry" />
        </mxCell>
        <mxCell id="flESJ9DVj2xyThcato4h-175" value="vp" style="whiteSpace=wrap;strokeWidth=2;" parent="1" vertex="1">
          <mxGeometry x="1440.5" y="170" width="32" height="34" as="geometry" />
        </mxCell>
        <mxCell id="flESJ9DVj2xyThcato4h-176" value="cc" style="whiteSpace=wrap;strokeWidth=2;" parent="1" vertex="1">
          <mxGeometry x="816.5" y="385" width="31" height="34" as="geometry" />
        </mxCell>
        <mxCell id="flESJ9DVj2xyThcato4h-177" value="dj" style="rhombus;strokeWidth=2;whiteSpace=wrap;" parent="1" vertex="1">
          <mxGeometry x="1133" y="970" width="64" height="64" as="geometry" />
        </mxCell>
        <mxCell id="flESJ9DVj2xyThcato4h-178" value="md" style="whiteSpace=wrap;strokeWidth=2;" parent="1" vertex="1">
          <mxGeometry x="395" y="696" width="37" height="34" as="geometry" />
        </mxCell>
        <mxCell id="flESJ9DVj2xyThcato4h-179" value="fc" style="whiteSpace=wrap;strokeWidth=2;" parent="1" vertex="1">
          <mxGeometry x="396.5" y="828" width="29" height="34" as="geometry" />
        </mxCell>
        <mxCell id="flESJ9DVj2xyThcato4h-180" value="px" style="whiteSpace=wrap;strokeWidth=2;" parent="1" vertex="1">
          <mxGeometry x="399.5" y="297" width="32" height="34" as="geometry" />
        </mxCell>
        <mxCell id="flESJ9DVj2xyThcato4h-181" value="nx" style="rhombus;strokeWidth=2;whiteSpace=wrap;" parent="1" vertex="1">
          <mxGeometry x="1670" y="983" width="66" height="66" as="geometry" />
        </mxCell>
        <mxCell id="flESJ9DVj2xyThcato4h-182" value="tf" style="whiteSpace=wrap;strokeWidth=2;" parent="1" vertex="1">
          <mxGeometry x="1051" y="683" width="27" height="34" as="geometry" />
        </mxCell>
        <mxCell id="flESJ9DVj2xyThcato4h-183" value="fj" style="whiteSpace=wrap;strokeWidth=2;" parent="1" vertex="1">
          <mxGeometry x="818.5" y="270" width="27" height="34" as="geometry" />
        </mxCell>
        <mxCell id="flESJ9DVj2xyThcato4h-184" value="mb" style="whiteSpace=wrap;strokeWidth=2;" parent="1" vertex="1">
          <mxGeometry x="1329" y="270" width="37" height="34" as="geometry" />
        </mxCell>
        <mxCell id="flESJ9DVj2xyThcato4h-185" value="cl" style="whiteSpace=wrap;strokeWidth=2;" parent="1" vertex="1">
          <mxGeometry x="397" y="483" width="28" height="34" as="geometry" />
        </mxCell>
        <mxCell id="flESJ9DVj2xyThcato4h-186" value="pm" style="whiteSpace=wrap;strokeWidth=2;" parent="1" vertex="1">
          <mxGeometry x="813.5" y="220" width="37" height="34" as="geometry" />
        </mxCell>
        <mxCell id="flESJ9DVj2xyThcato4h-187" value="jc" style="whiteSpace=wrap;strokeWidth=2;" parent="1" vertex="1">
          <mxGeometry x="817.5" y="744" width="29" height="34" as="geometry" />
        </mxCell>
        <mxCell id="flESJ9DVj2xyThcato4h-188" value="vd" style="rhombus;strokeWidth=2;whiteSpace=wrap;" parent="1" vertex="1">
          <mxGeometry x="1234" y="1244" width="66" height="66" as="geometry" />
        </mxCell>
        <mxCell id="flESJ9DVj2xyThcato4h-189" value="pz" style="whiteSpace=wrap;strokeWidth=2;" parent="1" vertex="1">
          <mxGeometry x="1500" y="660" width="32" height="34" as="geometry" />
        </mxCell>
        <mxCell id="flESJ9DVj2xyThcato4h-190" value="ns" style="rhombus;strokeWidth=2;whiteSpace=wrap;" parent="1" vertex="1">
          <mxGeometry x="1120" y="1245" width="64" height="64" as="geometry" />
        </mxCell>
        <mxCell id="flESJ9DVj2xyThcato4h-191" value="sr" style="whiteSpace=wrap;strokeWidth=2;" parent="1" vertex="1">
          <mxGeometry x="1472" y="717" width="28" height="34" as="geometry" />
        </mxCell>
        <mxCell id="flESJ9DVj2xyThcato4h-192" value="gl" style="whiteSpace=wrap;strokeWidth=2;" parent="1" vertex="1">
          <mxGeometry x="1642" y="430" width="28" height="34" as="geometry" />
        </mxCell>
        <mxCell id="flESJ9DVj2xyThcato4h-193" value="xx" style="whiteSpace=wrap;strokeWidth=2;" parent="1" vertex="1">
          <mxGeometry x="1279" y="320" width="31" height="34" as="geometry" />
        </mxCell>
        <mxCell id="flESJ9DVj2xyThcato4h-194" value="gp" style="whiteSpace=wrap;strokeWidth=2;" parent="1" vertex="1">
          <mxGeometry x="398" y="636" width="32" height="34" as="geometry" />
        </mxCell>
        <mxCell id="flESJ9DVj2xyThcato4h-195" value="hb" style="whiteSpace=wrap;strokeWidth=2;" parent="1" vertex="1">
          <mxGeometry x="1560" y="544" width="33" height="34" as="geometry" />
        </mxCell>
        <mxCell id="flESJ9DVj2xyThcato4h-196" value="zh" style="rhombus;strokeWidth=2;whiteSpace=wrap;" parent="1" vertex="1">
          <mxGeometry x="1023" y="1360" width="65" height="65" as="geometry" />
        </mxCell>
        <mxCell id="flESJ9DVj2xyThcato4h-197" value="rb" style="whiteSpace=wrap;strokeWidth=2;" parent="1" vertex="1">
          <mxGeometry x="1150" y="510" width="30" height="34" as="geometry" />
        </mxCell>
        <mxCell id="flESJ9DVj2xyThcato4h-198" value="xm" style="whiteSpace=wrap;strokeWidth=2;" parent="1" vertex="1">
          <mxGeometry x="814" y="828" width="36" height="34" as="geometry" />
        </mxCell>
        <mxCell id="flESJ9DVj2xyThcato4h-199" value="zp" style="rhombus;strokeWidth=2;whiteSpace=wrap;" parent="1" vertex="1">
          <mxGeometry x="378" y="983" width="66" height="66" as="geometry" />
        </mxCell>
        <mxCell id="flESJ9DVj2xyThcato4h-200" value="bz" style="rhombus;strokeWidth=2;whiteSpace=wrap;" parent="1" vertex="1">
          <mxGeometry x="797" y="1070" width="66" height="66" as="geometry" />
        </mxCell>
        <mxCell id="flESJ9DVj2xyThcato4h-201" value="nl" style="whiteSpace=wrap;strokeWidth=2;" parent="1" vertex="1">
          <mxGeometry x="818" y="170" width="28" height="34" as="geometry" />
        </mxCell>
        <mxCell id="flESJ9DVj2xyThcato4h-202" value="bh" style="rhombus;strokeWidth=2;whiteSpace=wrap;" parent="1" vertex="1">
          <mxGeometry x="840" y="1246" width="67" height="67" as="geometry" />
        </mxCell>
        <mxCell id="flESJ9DVj2xyThcato4h-203" value="hq" style="whiteSpace=wrap;strokeWidth=2;" parent="1" vertex="1">
          <mxGeometry x="1770" y="263" width="33" height="34" as="geometry" />
        </mxCell>
        <mxCell id="flESJ9DVj2xyThcato4h-204" value="bj" style="whiteSpace=wrap;strokeWidth=2;" parent="1" vertex="1">
          <mxGeometry x="817" y="510" width="30" height="34" as="geometry" />
        </mxCell>
        <mxCell id="flESJ9DVj2xyThcato4h-205" value="gj" style="whiteSpace=wrap;strokeWidth=2;" parent="1" vertex="1">
          <mxGeometry x="1719" y="315" width="29" height="34" as="geometry" />
        </mxCell>
        <mxCell id="flESJ9DVj2xyThcato4h-206" value="xp" style="whiteSpace=wrap;strokeWidth=2;" parent="1" vertex="1">
          <mxGeometry x="816" y="444" width="32" height="34" as="geometry" />
        </mxCell>
        <mxCell id="flESJ9DVj2xyThcato4h-207" value="vr" style="whiteSpace=wrap;strokeWidth=2;" parent="1" vertex="1">
          <mxGeometry x="1391.5" y="220" width="29" height="34" as="geometry" />
        </mxCell>
        <mxCell id="flESJ9DVj2xyThcato4h-208" value="dl" style="rhombus;strokeWidth=2;whiteSpace=wrap;" parent="1" vertex="1">
          <mxGeometry x="977" y="1244" width="63" height="63" as="geometry" />
        </mxCell>
        <mxCell id="flESJ9DVj2xyThcato4h-209" value="pr" style="whiteSpace=wrap;strokeWidth=2;" parent="1" vertex="1">
          <mxGeometry x="1601" y="483" width="30" height="34" as="geometry" />
        </mxCell>
        <mxCell id="flESJ9DVj2xyThcato4h-210" value="nt" style="whiteSpace=wrap;strokeWidth=2;" parent="1" vertex="1">
          <mxGeometry x="1226" y="376" width="30" height="34" as="geometry" />
        </mxCell>
        <mxCell id="flESJ9DVj2xyThcato4h-211" value="mx" style="whiteSpace=wrap;strokeWidth=2;" parent="1" vertex="1">
          <mxGeometry x="1680" y="374" width="36" height="34" as="geometry" />
        </mxCell>
        <mxCell id="flESJ9DVj2xyThcato4h-212" value="kd" style="whiteSpace=wrap;strokeWidth=2;" parent="1" vertex="1">
          <mxGeometry x="1816" y="204" width="32" height="34" as="geometry" />
        </mxCell>
        <mxCell id="flESJ9DVj2xyThcato4h-213" value="fn" style="whiteSpace=wrap;strokeWidth=2;" parent="1" vertex="1">
          <mxGeometry x="399" y="236" width="30" height="34" as="geometry" />
        </mxCell>
        <mxCell id="flESJ9DVj2xyThcato4h-214" value="jp" style="whiteSpace=wrap;strokeWidth=2;" parent="1" vertex="1">
          <mxGeometry x="817" y="585" width="30" height="34" as="geometry" />
        </mxCell>
        <mxCell id="flESJ9DVj2xyThcato4h-215" value="zx" style="whiteSpace=wrap;strokeWidth=2;" parent="1" vertex="1">
          <mxGeometry x="399.5" y="354" width="31" height="34" as="geometry" />
        </mxCell>
        <mxCell id="flESJ9DVj2xyThcato4h-216" value="lt" style="whiteSpace=wrap;strokeWidth=2;" parent="1" vertex="1">
          <mxGeometry x="1025" y="740" width="26" height="34" as="geometry" />
        </mxCell>
        <mxCell id="flESJ9DVj2xyThcato4h-217" value="df" style="whiteSpace=wrap;strokeWidth=2;" parent="1" vertex="1">
          <mxGeometry x="1077" y="626" width="30" height="34" as="geometry" />
        </mxCell>
        <mxCell id="flESJ9DVj2xyThcato4h-218" value="ts" style="whiteSpace=wrap;strokeWidth=2;" parent="1" vertex="1">
          <mxGeometry x="398" y="760" width="28" height="34" as="geometry" />
        </mxCell>
        <mxCell id="flESJ9DVj2xyThcato4h-219" value="jl" style="whiteSpace=wrap;strokeWidth=2;" parent="1" vertex="1">
          <mxGeometry x="1532" y="602" width="26" height="34" as="geometry" />
        </mxCell>
        <mxCell id="flESJ9DVj2xyThcato4h-220" value="xc" style="whiteSpace=wrap;strokeWidth=2;" parent="1" vertex="1">
          <mxGeometry x="816.5" y="660" width="31" height="34" as="geometry" />
        </mxCell>
        <mxCell id="flESJ9DVj2xyThcato4h-221" value="xf" style="whiteSpace=wrap;strokeWidth=2;" parent="1" vertex="1">
          <mxGeometry x="1868" y="154" width="29" height="34" as="geometry" />
        </mxCell>
        <mxCell id="flESJ9DVj2xyThcato4h-222" value="lq" style="whiteSpace=wrap;strokeWidth=2;" parent="1" vertex="1">
          <mxGeometry x="1190" y="449" width="29" height="34" as="geometry" />
        </mxCell>
        <mxCell id="flESJ9DVj2xyThcato4h-223" value="gz" style="whiteSpace=wrap;strokeWidth=2;" parent="1" vertex="1">
          <mxGeometry x="1109" y="568" width="31" height="34" as="geometry" />
        </mxCell>
        <mxCell id="flESJ9DVj2xyThcato4h-224" value="pc" style="whiteSpace=wrap;strokeWidth=2;" parent="1" vertex="1">
          <mxGeometry x="816" y="320" width="32" height="34" as="geometry" />
        </mxCell>
        <mxCell id="flESJ9DVj2xyThcato4h-225" value="hs" style="whiteSpace=wrap;strokeWidth=2;" parent="1" vertex="1">
          <mxGeometry x="397" y="170" width="30" height="34" as="geometry" />
        </mxCell>
        <mxCell id="flESJ9DVj2xyThcato4h-226" value="mj" style="whiteSpace=wrap;strokeWidth=2;" parent="1" vertex="1">
          <mxGeometry x="401" y="578" width="34" height="34" as="geometry" />
        </mxCell>
        <mxCell id="flESJ9DVj2xyThcato4h-227" value="rx" style="shape=hexagon;perimeter=hexagonPerimeter2;fixedSize=1;strokeWidth=2;whiteSpace=wrap;" parent="1" vertex="1">
          <mxGeometry x="1032" y="1476" width="46" height="34" as="geometry" />
        </mxCell>
        <mxCell id="flESJ9DVj2xyThcato4h-228" value="" style="curved=1;startArrow=none;endArrow=block;rounded=0;" parent="1" source="flESJ9DVj2xyThcato4h-174" target="flESJ9DVj2xyThcato4h-199" edge="1">
          <mxGeometry relative="1" as="geometry">
            <Array as="points">
              <mxPoint x="460" y="530" />
              <mxPoint x="520" y="690" />
            </Array>
          </mxGeometry>
        </mxCell>
        <mxCell id="flESJ9DVj2xyThcato4h-229" value="" style="curved=1;startArrow=none;endArrow=block;rounded=0;" parent="1" source="flESJ9DVj2xyThcato4h-174" target="flESJ9DVj2xyThcato4h-185" edge="1">
          <mxGeometry relative="1" as="geometry" />
        </mxCell>
        <mxCell id="flESJ9DVj2xyThcato4h-230" value="" style="curved=1;startArrow=none;endArrow=block;rounded=0;" parent="1" source="flESJ9DVj2xyThcato4h-175" target="flESJ9DVj2xyThcato4h-177" edge="1">
          <mxGeometry relative="1" as="geometry" />
        </mxCell>
        <mxCell id="flESJ9DVj2xyThcato4h-231" value="" style="curved=1;startArrow=none;endArrow=block;rounded=0;" parent="1" source="flESJ9DVj2xyThcato4h-175" target="flESJ9DVj2xyThcato4h-207" edge="1">
          <mxGeometry relative="1" as="geometry" />
        </mxCell>
        <mxCell id="flESJ9DVj2xyThcato4h-232" value="" style="curved=1;startArrow=none;endArrow=block;rounded=0;" parent="1" source="flESJ9DVj2xyThcato4h-176" target="flESJ9DVj2xyThcato4h-206" edge="1">
          <mxGeometry relative="1" as="geometry" />
        </mxCell>
        <mxCell id="flESJ9DVj2xyThcato4h-233" value="" style="curved=1;startArrow=none;endArrow=block;rounded=0;" parent="1" source="flESJ9DVj2xyThcato4h-177" target="flESJ9DVj2xyThcato4h-222" edge="1">
          <mxGeometry relative="1" as="geometry" />
        </mxCell>
        <mxCell id="flESJ9DVj2xyThcato4h-234" value="" style="curved=1;startArrow=none;endArrow=block;rounded=0;" parent="1" source="flESJ9DVj2xyThcato4h-177" target="flESJ9DVj2xyThcato4h-184" edge="1">
          <mxGeometry relative="1" as="geometry" />
        </mxCell>
        <mxCell id="flESJ9DVj2xyThcato4h-235" value="" style="curved=1;startArrow=none;endArrow=block;rounded=0;" parent="1" source="flESJ9DVj2xyThcato4h-177" target="flESJ9DVj2xyThcato4h-172" edge="1">
          <mxGeometry relative="1" as="geometry" />
        </mxCell>
        <mxCell id="flESJ9DVj2xyThcato4h-236" value="" style="curved=1;startArrow=none;endArrow=block;rounded=0;" parent="1" source="flESJ9DVj2xyThcato4h-177" target="flESJ9DVj2xyThcato4h-190" edge="1">
          <mxGeometry relative="1" as="geometry" />
        </mxCell>
        <mxCell id="flESJ9DVj2xyThcato4h-237" value="" style="curved=1;startArrow=none;endArrow=block;rounded=0;" parent="1" source="flESJ9DVj2xyThcato4h-177" target="flESJ9DVj2xyThcato4h-223" edge="1">
          <mxGeometry relative="1" as="geometry" />
        </mxCell>
        <mxCell id="flESJ9DVj2xyThcato4h-238" value="" style="curved=1;startArrow=none;endArrow=block;rounded=0;" parent="1" source="flESJ9DVj2xyThcato4h-178" target="flESJ9DVj2xyThcato4h-218" edge="1">
          <mxGeometry relative="1" as="geometry" />
        </mxCell>
        <mxCell id="flESJ9DVj2xyThcato4h-239" value="" style="curved=1;startArrow=none;endArrow=block;rounded=0;" parent="1" source="flESJ9DVj2xyThcato4h-178" target="flESJ9DVj2xyThcato4h-199" edge="1">
          <mxGeometry relative="1" as="geometry">
            <Array as="points">
              <mxPoint x="480" y="720" />
            </Array>
          </mxGeometry>
        </mxCell>
        <mxCell id="flESJ9DVj2xyThcato4h-240" value="" style="curved=1;startArrow=none;endArrow=block;rounded=0;" parent="1" source="flESJ9DVj2xyThcato4h-179" target="flESJ9DVj2xyThcato4h-199" edge="1">
          <mxGeometry relative="1" as="geometry">
            <Array as="points">
              <mxPoint x="440" y="850" />
              <mxPoint x="420" y="950" />
            </Array>
          </mxGeometry>
        </mxCell>
        <mxCell id="flESJ9DVj2xyThcato4h-241" value="" style="curved=1;startArrow=none;endArrow=block;rounded=0;" parent="1" source="flESJ9DVj2xyThcato4h-180" target="flESJ9DVj2xyThcato4h-215" edge="1">
          <mxGeometry relative="1" as="geometry" />
        </mxCell>
        <mxCell id="flESJ9DVj2xyThcato4h-242" value="" style="curved=1;startArrow=none;endArrow=block;rounded=0;" parent="1" source="flESJ9DVj2xyThcato4h-181" target="flESJ9DVj2xyThcato4h-192" edge="1">
          <mxGeometry relative="1" as="geometry" />
        </mxCell>
        <mxCell id="flESJ9DVj2xyThcato4h-243" value="" style="curved=1;startArrow=none;endArrow=block;rounded=0;" parent="1" source="flESJ9DVj2xyThcato4h-181" target="flESJ9DVj2xyThcato4h-173" edge="1">
          <mxGeometry relative="1" as="geometry" />
        </mxCell>
        <mxCell id="flESJ9DVj2xyThcato4h-244" value="" style="curved=1;startArrow=none;endArrow=block;rounded=0;" parent="1" source="flESJ9DVj2xyThcato4h-181" target="flESJ9DVj2xyThcato4h-209" edge="1">
          <mxGeometry relative="1" as="geometry" />
        </mxCell>
        <mxCell id="flESJ9DVj2xyThcato4h-245" value="" style="curved=1;startArrow=none;endArrow=block;rounded=0;" parent="1" source="flESJ9DVj2xyThcato4h-181" target="flESJ9DVj2xyThcato4h-221" edge="1">
          <mxGeometry relative="1" as="geometry" />
        </mxCell>
        <mxCell id="flESJ9DVj2xyThcato4h-246" value="" style="curved=1;startArrow=none;endArrow=block;rounded=0;" parent="1" source="flESJ9DVj2xyThcato4h-181" target="flESJ9DVj2xyThcato4h-188" edge="1">
          <mxGeometry relative="1" as="geometry">
            <mxPoint x="1621.3225665648188" y="246.32256656481877" as="sourcePoint" />
            <mxPoint x="1103.6774334351812" y="1953.6774334351812" as="targetPoint" />
          </mxGeometry>
        </mxCell>
        <mxCell id="flESJ9DVj2xyThcato4h-247" value="" style="curved=1;startArrow=none;endArrow=block;rounded=0;" parent="1" source="flESJ9DVj2xyThcato4h-181" target="flESJ9DVj2xyThcato4h-205" edge="1">
          <mxGeometry relative="1" as="geometry" />
        </mxCell>
        <mxCell id="flESJ9DVj2xyThcato4h-248" value="" style="curved=1;startArrow=none;endArrow=block;rounded=0;" parent="1" source="flESJ9DVj2xyThcato4h-181" target="flESJ9DVj2xyThcato4h-212" edge="1">
          <mxGeometry relative="1" as="geometry" />
        </mxCell>
        <mxCell id="flESJ9DVj2xyThcato4h-249" value="" style="curved=1;startArrow=none;endArrow=block;rounded=0;" parent="1" source="flESJ9DVj2xyThcato4h-182" target="flESJ9DVj2xyThcato4h-216" edge="1">
          <mxGeometry relative="1" as="geometry" />
        </mxCell>
        <mxCell id="flESJ9DVj2xyThcato4h-250" value="" style="curved=1;startArrow=none;endArrow=block;rounded=0;" parent="1" source="flESJ9DVj2xyThcato4h-182" target="flESJ9DVj2xyThcato4h-177" edge="1">
          <mxGeometry relative="1" as="geometry" />
        </mxCell>
        <mxCell id="flESJ9DVj2xyThcato4h-251" value="" style="curved=1;startArrow=none;endArrow=block;rounded=0;" parent="1" source="flESJ9DVj2xyThcato4h-183" target="flESJ9DVj2xyThcato4h-224" edge="1">
          <mxGeometry relative="1" as="geometry" />
        </mxCell>
        <mxCell id="flESJ9DVj2xyThcato4h-252" value="" style="curved=1;startArrow=none;endArrow=block;rounded=0;" parent="1" source="flESJ9DVj2xyThcato4h-184" target="flESJ9DVj2xyThcato4h-193" edge="1">
          <mxGeometry relative="1" as="geometry" />
        </mxCell>
        <mxCell id="flESJ9DVj2xyThcato4h-253" value="" style="curved=1;startArrow=none;endArrow=block;rounded=0;" parent="1" source="flESJ9DVj2xyThcato4h-185" target="flESJ9DVj2xyThcato4h-226" edge="1">
          <mxGeometry relative="1" as="geometry" />
        </mxCell>
        <mxCell id="flESJ9DVj2xyThcato4h-254" value="" style="curved=1;startArrow=none;endArrow=block;rounded=0;" parent="1" source="flESJ9DVj2xyThcato4h-186" target="flESJ9DVj2xyThcato4h-183" edge="1">
          <mxGeometry relative="1" as="geometry" />
        </mxCell>
        <mxCell id="flESJ9DVj2xyThcato4h-255" value="" style="curved=1;startArrow=none;endArrow=block;rounded=0;" parent="1" source="flESJ9DVj2xyThcato4h-172" target="flESJ9DVj2xyThcato4h-177" edge="1">
          <mxGeometry relative="1" as="geometry" />
        </mxCell>
        <mxCell id="flESJ9DVj2xyThcato4h-256" value="" style="curved=1;startArrow=none;endArrow=block;rounded=0;" parent="1" source="flESJ9DVj2xyThcato4h-172" target="flESJ9DVj2xyThcato4h-175" edge="1">
          <mxGeometry relative="1" as="geometry" />
        </mxCell>
        <mxCell id="flESJ9DVj2xyThcato4h-257" value="" style="curved=1;startArrow=none;endArrow=block;rounded=0;" parent="1" source="flESJ9DVj2xyThcato4h-187" target="flESJ9DVj2xyThcato4h-200" edge="1">
          <mxGeometry relative="1" as="geometry">
            <Array as="points">
              <mxPoint x="880" y="770" />
            </Array>
          </mxGeometry>
        </mxCell>
        <mxCell id="flESJ9DVj2xyThcato4h-258" value="" style="curved=1;startArrow=none;endArrow=block;rounded=0;" parent="1" source="flESJ9DVj2xyThcato4h-187" target="flESJ9DVj2xyThcato4h-198" edge="1">
          <mxGeometry relative="1" as="geometry" />
        </mxCell>
        <mxCell id="flESJ9DVj2xyThcato4h-259" value="" style="curved=1;startArrow=none;endArrow=block;rounded=0;exitDx=0;exitDy=0;" parent="1" source="flESJ9DVj2xyThcato4h-188" target="flESJ9DVj2xyThcato4h-196" edge="1">
          <mxGeometry relative="1" as="geometry" />
        </mxCell>
        <mxCell id="flESJ9DVj2xyThcato4h-260" value="" style="curved=1;startArrow=none;endArrow=block;rounded=0;" parent="1" source="flESJ9DVj2xyThcato4h-189" target="flESJ9DVj2xyThcato4h-191" edge="1">
          <mxGeometry relative="1" as="geometry" />
        </mxCell>
        <mxCell id="flESJ9DVj2xyThcato4h-261" value="" style="curved=1;startArrow=none;endArrow=block;rounded=0;" parent="1" source="flESJ9DVj2xyThcato4h-189" target="flESJ9DVj2xyThcato4h-181" edge="1">
          <mxGeometry relative="1" as="geometry" />
        </mxCell>
        <mxCell id="flESJ9DVj2xyThcato4h-262" value="" style="curved=1;startArrow=none;endArrow=block;rounded=0;" parent="1" source="flESJ9DVj2xyThcato4h-190" target="flESJ9DVj2xyThcato4h-196" edge="1">
          <mxGeometry relative="1" as="geometry" />
        </mxCell>
        <mxCell id="flESJ9DVj2xyThcato4h-263" value="" style="curved=1;startArrow=none;endArrow=block;rounded=0;" parent="1" source="flESJ9DVj2xyThcato4h-191" target="flESJ9DVj2xyThcato4h-181" edge="1">
          <mxGeometry relative="1" as="geometry" />
        </mxCell>
        <mxCell id="flESJ9DVj2xyThcato4h-264" value="" style="curved=1;startArrow=none;endArrow=block;rounded=0;" parent="1" source="flESJ9DVj2xyThcato4h-192" target="flESJ9DVj2xyThcato4h-209" edge="1">
          <mxGeometry relative="1" as="geometry" />
        </mxCell>
        <mxCell id="flESJ9DVj2xyThcato4h-265" value="" style="curved=1;startArrow=none;endArrow=block;rounded=0;" parent="1" source="flESJ9DVj2xyThcato4h-193" target="flESJ9DVj2xyThcato4h-210" edge="1">
          <mxGeometry relative="1" as="geometry" />
        </mxCell>
        <mxCell id="flESJ9DVj2xyThcato4h-266" value="" style="curved=1;startArrow=none;endArrow=block;rounded=0;" parent="1" source="flESJ9DVj2xyThcato4h-193" target="flESJ9DVj2xyThcato4h-177" edge="1">
          <mxGeometry relative="1" as="geometry" />
        </mxCell>
        <mxCell id="flESJ9DVj2xyThcato4h-267" value="" style="curved=1;startArrow=none;endArrow=block;rounded=0;" parent="1" source="flESJ9DVj2xyThcato4h-194" target="flESJ9DVj2xyThcato4h-178" edge="1">
          <mxGeometry relative="1" as="geometry" />
        </mxCell>
        <mxCell id="flESJ9DVj2xyThcato4h-268" value="" style="curved=1;startArrow=none;endArrow=block;rounded=0;" parent="1" source="flESJ9DVj2xyThcato4h-195" target="flESJ9DVj2xyThcato4h-219" edge="1">
          <mxGeometry relative="1" as="geometry" />
        </mxCell>
        <mxCell id="flESJ9DVj2xyThcato4h-269" value="" style="curved=1;startArrow=none;endArrow=block;rounded=0;" parent="1" source="flESJ9DVj2xyThcato4h-195" target="flESJ9DVj2xyThcato4h-181" edge="1">
          <mxGeometry relative="1" as="geometry" />
        </mxCell>
        <mxCell id="flESJ9DVj2xyThcato4h-270" value="" style="curved=1;startArrow=none;endArrow=block;rounded=0;" parent="1" source="flESJ9DVj2xyThcato4h-196" target="flESJ9DVj2xyThcato4h-227" edge="1">
          <mxGeometry relative="1" as="geometry" />
        </mxCell>
        <mxCell id="flESJ9DVj2xyThcato4h-271" value="" style="curved=1;startArrow=none;endArrow=block;rounded=0;" parent="1" source="flESJ9DVj2xyThcato4h-197" target="flESJ9DVj2xyThcato4h-223" edge="1">
          <mxGeometry relative="1" as="geometry" />
        </mxCell>
        <mxCell id="flESJ9DVj2xyThcato4h-272" value="" style="curved=1;startArrow=none;endArrow=block;rounded=0;" parent="1" source="flESJ9DVj2xyThcato4h-197" target="flESJ9DVj2xyThcato4h-177" edge="1">
          <mxGeometry relative="1" as="geometry" />
        </mxCell>
        <mxCell id="flESJ9DVj2xyThcato4h-273" value="" style="curved=1;startArrow=none;endArrow=block;rounded=0;" parent="1" source="flESJ9DVj2xyThcato4h-198" target="flESJ9DVj2xyThcato4h-200" edge="1">
          <mxGeometry relative="1" as="geometry">
            <Array as="points">
              <mxPoint x="850" y="880" />
            </Array>
          </mxGeometry>
        </mxCell>
        <mxCell id="flESJ9DVj2xyThcato4h-274" value="" style="curved=1;startArrow=none;endArrow=block;rounded=0;" parent="1" source="flESJ9DVj2xyThcato4h-199" target="flESJ9DVj2xyThcato4h-180" edge="1">
          <mxGeometry relative="1" as="geometry">
            <Array as="points">
              <mxPoint x="210" y="660" />
            </Array>
          </mxGeometry>
        </mxCell>
        <mxCell id="flESJ9DVj2xyThcato4h-275" value="" style="curved=1;startArrow=none;endArrow=block;rounded=0;" parent="1" source="flESJ9DVj2xyThcato4h-199" target="flESJ9DVj2xyThcato4h-194" edge="1">
          <mxGeometry relative="1" as="geometry">
            <Array as="points">
              <mxPoint x="290" y="680" />
            </Array>
          </mxGeometry>
        </mxCell>
        <mxCell id="flESJ9DVj2xyThcato4h-276" value="" style="curved=1;startArrow=none;endArrow=block;rounded=0;" parent="1" source="flESJ9DVj2xyThcato4h-199" target="flESJ9DVj2xyThcato4h-185" edge="1">
          <mxGeometry relative="1" as="geometry">
            <Array as="points">
              <mxPoint x="250" y="760" />
            </Array>
          </mxGeometry>
        </mxCell>
        <mxCell id="flESJ9DVj2xyThcato4h-277" value="" style="curved=1;startArrow=none;endArrow=block;rounded=0;" parent="1" source="flESJ9DVj2xyThcato4h-199" target="flESJ9DVj2xyThcato4h-202" edge="1">
          <mxGeometry relative="1" as="geometry" />
        </mxCell>
        <mxCell id="flESJ9DVj2xyThcato4h-278" value="" style="curved=1;startArrow=none;endArrow=block;rounded=0;" parent="1" source="flESJ9DVj2xyThcato4h-199" target="flESJ9DVj2xyThcato4h-213" edge="1">
          <mxGeometry relative="1" as="geometry">
            <Array as="points">
              <mxPoint x="150" y="630" />
            </Array>
          </mxGeometry>
        </mxCell>
        <mxCell id="flESJ9DVj2xyThcato4h-279" value="" style="curved=1;startArrow=none;endArrow=block;rounded=0;" parent="1" source="flESJ9DVj2xyThcato4h-199" target="flESJ9DVj2xyThcato4h-170" edge="1">
          <mxGeometry relative="1" as="geometry">
            <Array as="points">
              <mxPoint x="-80" y="500" />
            </Array>
          </mxGeometry>
        </mxCell>
        <mxCell id="flESJ9DVj2xyThcato4h-280" value="" style="curved=1;startArrow=none;endArrow=block;rounded=0;" parent="1" source="flESJ9DVj2xyThcato4h-199" target="flESJ9DVj2xyThcato4h-225" edge="1">
          <mxGeometry relative="1" as="geometry">
            <Array as="points">
              <mxPoint x="40" y="500" />
            </Array>
          </mxGeometry>
        </mxCell>
        <mxCell id="flESJ9DVj2xyThcato4h-281" value="" style="curved=1;startArrow=none;endArrow=block;rounded=0;" parent="1" source="flESJ9DVj2xyThcato4h-200" target="flESJ9DVj2xyThcato4h-186" edge="1">
          <mxGeometry relative="1" as="geometry">
            <Array as="points">
              <mxPoint x="730" y="690" />
              <mxPoint x="730" y="310" />
            </Array>
          </mxGeometry>
        </mxCell>
        <mxCell id="flESJ9DVj2xyThcato4h-282" value="" style="curved=1;startArrow=none;endArrow=block;rounded=0;" parent="1" source="flESJ9DVj2xyThcato4h-200" target="flESJ9DVj2xyThcato4h-224" edge="1">
          <mxGeometry relative="1" as="geometry">
            <Array as="points">
              <mxPoint x="710" y="450" />
            </Array>
          </mxGeometry>
        </mxCell>
        <mxCell id="flESJ9DVj2xyThcato4h-283" value="" style="curved=1;startArrow=none;endArrow=block;rounded=0;" parent="1" source="flESJ9DVj2xyThcato4h-200" target="flESJ9DVj2xyThcato4h-171" edge="1">
          <mxGeometry relative="1" as="geometry">
            <Array as="points">
              <mxPoint x="600" y="470" />
            </Array>
          </mxGeometry>
        </mxCell>
        <mxCell id="flESJ9DVj2xyThcato4h-284" value="" style="curved=1;startArrow=none;endArrow=block;rounded=0;" parent="1" source="flESJ9DVj2xyThcato4h-200" target="flESJ9DVj2xyThcato4h-208" edge="1">
          <mxGeometry relative="1" as="geometry" />
        </mxCell>
        <mxCell id="flESJ9DVj2xyThcato4h-285" value="" style="curved=1;startArrow=none;endArrow=block;rounded=0;" parent="1" source="flESJ9DVj2xyThcato4h-200" target="flESJ9DVj2xyThcato4h-214" edge="1">
          <mxGeometry relative="1" as="geometry">
            <Array as="points">
              <mxPoint x="760" y="620" />
            </Array>
          </mxGeometry>
        </mxCell>
        <mxCell id="flESJ9DVj2xyThcato4h-286" value="" style="curved=1;startArrow=none;endArrow=block;rounded=0;" parent="1" source="flESJ9DVj2xyThcato4h-200" target="flESJ9DVj2xyThcato4h-183" edge="1">
          <mxGeometry relative="1" as="geometry">
            <Array as="points">
              <mxPoint x="670" y="430" />
            </Array>
          </mxGeometry>
        </mxCell>
        <mxCell id="flESJ9DVj2xyThcato4h-287" value="" style="curved=1;startArrow=none;endArrow=block;rounded=0;" parent="1" source="flESJ9DVj2xyThcato4h-200" target="flESJ9DVj2xyThcato4h-176" edge="1">
          <mxGeometry relative="1" as="geometry">
            <Array as="points">
              <mxPoint x="730" y="470" />
            </Array>
          </mxGeometry>
        </mxCell>
        <mxCell id="flESJ9DVj2xyThcato4h-288" value="" style="curved=1;startArrow=none;endArrow=block;rounded=0;" parent="1" source="flESJ9DVj2xyThcato4h-201" target="flESJ9DVj2xyThcato4h-200" edge="1">
          <mxGeometry relative="1" as="geometry">
            <Array as="points">
              <mxPoint x="1110" y="250" />
            </Array>
          </mxGeometry>
        </mxCell>
        <mxCell id="flESJ9DVj2xyThcato4h-289" value="" style="curved=1;startArrow=none;endArrow=block;rounded=0;" parent="1" source="flESJ9DVj2xyThcato4h-201" target="flESJ9DVj2xyThcato4h-186" edge="1">
          <mxGeometry relative="1" as="geometry" />
        </mxCell>
        <mxCell id="flESJ9DVj2xyThcato4h-290" value="" style="curved=1;startArrow=none;endArrow=block;rounded=0;entryDx=0;entryDy=0;entryPerimeter=0;exitDx=0;exitDy=0;" parent="1" source="flESJ9DVj2xyThcato4h-202" target="flESJ9DVj2xyThcato4h-196" edge="1">
          <mxGeometry relative="1" as="geometry" />
        </mxCell>
        <mxCell id="flESJ9DVj2xyThcato4h-291" value="" style="curved=1;startArrow=none;endArrow=block;rounded=0;" parent="1" source="flESJ9DVj2xyThcato4h-203" target="flESJ9DVj2xyThcato4h-205" edge="1">
          <mxGeometry relative="1" as="geometry" />
        </mxCell>
        <mxCell id="flESJ9DVj2xyThcato4h-292" value="" style="curved=1;startArrow=none;endArrow=block;rounded=0;" parent="1" source="flESJ9DVj2xyThcato4h-203" target="flESJ9DVj2xyThcato4h-181" edge="1">
          <mxGeometry relative="1" as="geometry" />
        </mxCell>
        <mxCell id="flESJ9DVj2xyThcato4h-293" value="" style="curved=1;startArrow=none;endArrow=block;rounded=0;" parent="1" source="flESJ9DVj2xyThcato4h-171" target="flESJ9DVj2xyThcato4h-200" edge="1">
          <mxGeometry relative="1" as="geometry">
            <Array as="points">
              <mxPoint x="1160" y="190" />
            </Array>
          </mxGeometry>
        </mxCell>
        <mxCell id="flESJ9DVj2xyThcato4h-294" value="" style="curved=1;startArrow=none;endArrow=block;rounded=0;" parent="1" source="flESJ9DVj2xyThcato4h-171" target="flESJ9DVj2xyThcato4h-201" edge="1">
          <mxGeometry relative="1" as="geometry" />
        </mxCell>
        <mxCell id="flESJ9DVj2xyThcato4h-295" value="" style="curved=1;startArrow=none;endArrow=block;rounded=0;" parent="1" source="flESJ9DVj2xyThcato4h-204" target="flESJ9DVj2xyThcato4h-214" edge="1">
          <mxGeometry relative="1" as="geometry" />
        </mxCell>
        <mxCell id="flESJ9DVj2xyThcato4h-296" value="" style="curved=1;startArrow=none;endArrow=block;rounded=0;" parent="1" source="flESJ9DVj2xyThcato4h-204" target="flESJ9DVj2xyThcato4h-200" edge="1">
          <mxGeometry relative="1" as="geometry">
            <Array as="points">
              <mxPoint x="950" y="560" />
            </Array>
          </mxGeometry>
        </mxCell>
        <mxCell id="flESJ9DVj2xyThcato4h-297" value="" style="curved=1;startArrow=none;endArrow=block;rounded=0;" parent="1" source="flESJ9DVj2xyThcato4h-205" target="flESJ9DVj2xyThcato4h-211" edge="1">
          <mxGeometry relative="1" as="geometry" />
        </mxCell>
        <mxCell id="flESJ9DVj2xyThcato4h-298" value="" style="curved=1;startArrow=none;endArrow=block;rounded=0;" parent="1" source="flESJ9DVj2xyThcato4h-206" target="flESJ9DVj2xyThcato4h-200" edge="1">
          <mxGeometry relative="1" as="geometry">
            <Array as="points">
              <mxPoint x="1020" y="470" />
            </Array>
          </mxGeometry>
        </mxCell>
        <mxCell id="flESJ9DVj2xyThcato4h-299" value="" style="curved=1;startArrow=none;endArrow=block;rounded=0;" parent="1" source="flESJ9DVj2xyThcato4h-206" target="flESJ9DVj2xyThcato4h-204" edge="1">
          <mxGeometry relative="1" as="geometry" />
        </mxCell>
        <mxCell id="flESJ9DVj2xyThcato4h-300" value="" style="curved=1;startArrow=none;endArrow=block;rounded=0;" parent="1" source="flESJ9DVj2xyThcato4h-207" target="flESJ9DVj2xyThcato4h-177" edge="1">
          <mxGeometry relative="1" as="geometry" />
        </mxCell>
        <mxCell id="flESJ9DVj2xyThcato4h-301" value="" style="curved=1;startArrow=none;endArrow=block;rounded=0;" parent="1" source="flESJ9DVj2xyThcato4h-207" target="flESJ9DVj2xyThcato4h-184" edge="1">
          <mxGeometry relative="1" as="geometry" />
        </mxCell>
        <mxCell id="flESJ9DVj2xyThcato4h-302" value="" style="curved=1;startArrow=none;endArrow=block;rounded=0;entryDx=0;entryDy=0;entryPerimeter=0;exitDx=0;exitDy=0;" parent="1" source="flESJ9DVj2xyThcato4h-208" target="flESJ9DVj2xyThcato4h-196" edge="1">
          <mxGeometry relative="1" as="geometry" />
        </mxCell>
        <mxCell id="flESJ9DVj2xyThcato4h-303" value="" style="curved=1;startArrow=none;endArrow=block;rounded=0;" parent="1" source="flESJ9DVj2xyThcato4h-209" target="flESJ9DVj2xyThcato4h-195" edge="1">
          <mxGeometry relative="1" as="geometry" />
        </mxCell>
        <mxCell id="flESJ9DVj2xyThcato4h-304" value="" style="curved=1;startArrow=none;endArrow=block;rounded=0;" parent="1" source="flESJ9DVj2xyThcato4h-210" target="flESJ9DVj2xyThcato4h-177" edge="1">
          <mxGeometry relative="1" as="geometry" />
        </mxCell>
        <mxCell id="flESJ9DVj2xyThcato4h-305" value="" style="curved=1;startArrow=none;endArrow=block;rounded=0;" parent="1" source="flESJ9DVj2xyThcato4h-210" target="flESJ9DVj2xyThcato4h-222" edge="1">
          <mxGeometry relative="1" as="geometry" />
        </mxCell>
        <mxCell id="flESJ9DVj2xyThcato4h-306" value="" style="curved=1;startArrow=none;endArrow=block;rounded=0;" parent="1" source="flESJ9DVj2xyThcato4h-211" target="flESJ9DVj2xyThcato4h-192" edge="1">
          <mxGeometry relative="1" as="geometry" />
        </mxCell>
        <mxCell id="flESJ9DVj2xyThcato4h-307" value="" style="curved=1;startArrow=none;endArrow=block;rounded=0;" parent="1" source="flESJ9DVj2xyThcato4h-211" target="flESJ9DVj2xyThcato4h-181" edge="1">
          <mxGeometry relative="1" as="geometry" />
        </mxCell>
        <mxCell id="flESJ9DVj2xyThcato4h-308" value="" style="curved=1;startArrow=none;endArrow=block;rounded=0;" parent="1" source="flESJ9DVj2xyThcato4h-212" target="flESJ9DVj2xyThcato4h-203" edge="1">
          <mxGeometry relative="1" as="geometry" />
        </mxCell>
        <mxCell id="flESJ9DVj2xyThcato4h-309" value="" style="curved=1;startArrow=none;endArrow=block;rounded=0;" parent="1" source="flESJ9DVj2xyThcato4h-213" target="flESJ9DVj2xyThcato4h-180" edge="1">
          <mxGeometry relative="1" as="geometry" />
        </mxCell>
        <mxCell id="flESJ9DVj2xyThcato4h-310" value="" style="curved=1;startArrow=none;endArrow=block;rounded=0;" parent="1" source="flESJ9DVj2xyThcato4h-214" target="flESJ9DVj2xyThcato4h-220" edge="1">
          <mxGeometry relative="1" as="geometry" />
        </mxCell>
        <mxCell id="flESJ9DVj2xyThcato4h-311" value="" style="curved=1;startArrow=none;endArrow=block;rounded=0;" parent="1" source="flESJ9DVj2xyThcato4h-215" target="flESJ9DVj2xyThcato4h-174" edge="1">
          <mxGeometry relative="1" as="geometry" />
        </mxCell>
        <mxCell id="flESJ9DVj2xyThcato4h-312" value="" style="curved=1;startArrow=none;endArrow=block;rounded=0;" parent="1" source="flESJ9DVj2xyThcato4h-215" target="flESJ9DVj2xyThcato4h-199" edge="1">
          <mxGeometry relative="1" as="geometry">
            <Array as="points">
              <mxPoint x="480" y="490" />
              <mxPoint x="520" y="750" />
            </Array>
          </mxGeometry>
        </mxCell>
        <mxCell id="flESJ9DVj2xyThcato4h-313" value="" style="curved=1;startArrow=none;endArrow=block;rounded=0;" parent="1" source="flESJ9DVj2xyThcato4h-173" target="flESJ9DVj2xyThcato4h-181" edge="1">
          <mxGeometry relative="1" as="geometry" />
        </mxCell>
        <mxCell id="flESJ9DVj2xyThcato4h-314" value="" style="curved=1;startArrow=none;endArrow=block;rounded=0;" parent="1" source="flESJ9DVj2xyThcato4h-173" target="flESJ9DVj2xyThcato4h-221" edge="1">
          <mxGeometry relative="1" as="geometry" />
        </mxCell>
        <mxCell id="flESJ9DVj2xyThcato4h-315" value="" style="curved=1;startArrow=none;endArrow=block;rounded=0;" parent="1" source="flESJ9DVj2xyThcato4h-216" target="flESJ9DVj2xyThcato4h-177" edge="1">
          <mxGeometry relative="1" as="geometry" />
        </mxCell>
        <mxCell id="flESJ9DVj2xyThcato4h-316" value="" style="curved=1;startArrow=none;endArrow=block;rounded=0;" parent="1" source="flESJ9DVj2xyThcato4h-217" target="flESJ9DVj2xyThcato4h-177" edge="1">
          <mxGeometry relative="1" as="geometry" />
        </mxCell>
        <mxCell id="flESJ9DVj2xyThcato4h-317" value="" style="curved=1;startArrow=none;endArrow=block;rounded=0;" parent="1" source="flESJ9DVj2xyThcato4h-217" target="flESJ9DVj2xyThcato4h-182" edge="1">
          <mxGeometry relative="1" as="geometry" />
        </mxCell>
        <mxCell id="flESJ9DVj2xyThcato4h-318" value="" style="curved=1;startArrow=none;endArrow=block;rounded=0;" parent="1" source="flESJ9DVj2xyThcato4h-218" target="flESJ9DVj2xyThcato4h-199" edge="1">
          <mxGeometry relative="1" as="geometry">
            <Array as="points">
              <mxPoint x="460" y="780" />
            </Array>
          </mxGeometry>
        </mxCell>
        <mxCell id="flESJ9DVj2xyThcato4h-319" value="" style="curved=1;startArrow=none;endArrow=block;rounded=0;" parent="1" source="flESJ9DVj2xyThcato4h-218" target="flESJ9DVj2xyThcato4h-179" edge="1">
          <mxGeometry relative="1" as="geometry" />
        </mxCell>
        <mxCell id="flESJ9DVj2xyThcato4h-320" value="" style="curved=1;startArrow=none;endArrow=block;rounded=0;" parent="1" source="flESJ9DVj2xyThcato4h-219" target="flESJ9DVj2xyThcato4h-181" edge="1">
          <mxGeometry relative="1" as="geometry" />
        </mxCell>
        <mxCell id="flESJ9DVj2xyThcato4h-321" value="" style="curved=1;startArrow=none;endArrow=block;rounded=0;" parent="1" source="flESJ9DVj2xyThcato4h-219" target="flESJ9DVj2xyThcato4h-189" edge="1">
          <mxGeometry relative="1" as="geometry" />
        </mxCell>
        <mxCell id="flESJ9DVj2xyThcato4h-322" value="" style="curved=1;startArrow=none;endArrow=block;rounded=0;" parent="1" source="flESJ9DVj2xyThcato4h-220" target="flESJ9DVj2xyThcato4h-187" edge="1">
          <mxGeometry relative="1" as="geometry" />
        </mxCell>
        <mxCell id="flESJ9DVj2xyThcato4h-323" value="" style="curved=1;startArrow=none;endArrow=block;rounded=0;" parent="1" source="flESJ9DVj2xyThcato4h-220" target="flESJ9DVj2xyThcato4h-200" edge="1">
          <mxGeometry relative="1" as="geometry">
            <Array as="points">
              <mxPoint x="910" y="680" />
            </Array>
          </mxGeometry>
        </mxCell>
        <mxCell id="flESJ9DVj2xyThcato4h-324" value="" style="curved=1;startArrow=none;endArrow=block;rounded=0;" parent="1" source="flESJ9DVj2xyThcato4h-221" target="flESJ9DVj2xyThcato4h-212" edge="1">
          <mxGeometry relative="1" as="geometry" />
        </mxCell>
        <mxCell id="flESJ9DVj2xyThcato4h-325" value="" style="curved=1;startArrow=none;endArrow=block;rounded=0;" parent="1" source="flESJ9DVj2xyThcato4h-222" target="flESJ9DVj2xyThcato4h-197" edge="1">
          <mxGeometry relative="1" as="geometry" />
        </mxCell>
        <mxCell id="flESJ9DVj2xyThcato4h-326" value="" style="curved=1;startArrow=none;endArrow=block;rounded=0;" parent="1" source="flESJ9DVj2xyThcato4h-223" target="flESJ9DVj2xyThcato4h-217" edge="1">
          <mxGeometry relative="1" as="geometry" />
        </mxCell>
        <mxCell id="flESJ9DVj2xyThcato4h-327" value="" style="curved=1;startArrow=none;endArrow=block;rounded=0;" parent="1" source="flESJ9DVj2xyThcato4h-224" target="flESJ9DVj2xyThcato4h-176" edge="1">
          <mxGeometry relative="1" as="geometry" />
        </mxCell>
        <mxCell id="flESJ9DVj2xyThcato4h-328" value="" style="curved=1;startArrow=none;endArrow=block;rounded=0;" parent="1" source="flESJ9DVj2xyThcato4h-225" target="flESJ9DVj2xyThcato4h-213" edge="1">
          <mxGeometry relative="1" as="geometry" />
        </mxCell>
        <mxCell id="flESJ9DVj2xyThcato4h-329" value="" style="curved=1;startArrow=none;endArrow=block;rounded=0;" parent="1" source="flESJ9DVj2xyThcato4h-169" target="flESJ9DVj2xyThcato4h-170" edge="1">
          <mxGeometry relative="1" as="geometry" />
        </mxCell>
        <mxCell id="flESJ9DVj2xyThcato4h-330" value="" style="curved=1;startArrow=none;endArrow=block;rounded=0;" parent="1" source="flESJ9DVj2xyThcato4h-169" target="flESJ9DVj2xyThcato4h-171" edge="1">
          <mxGeometry relative="1" as="geometry" />
        </mxCell>
        <mxCell id="flESJ9DVj2xyThcato4h-331" value="" style="curved=1;startArrow=none;endArrow=block;rounded=0;" parent="1" source="flESJ9DVj2xyThcato4h-169" target="flESJ9DVj2xyThcato4h-172" edge="1">
          <mxGeometry relative="1" as="geometry" />
        </mxCell>
        <mxCell id="flESJ9DVj2xyThcato4h-332" value="" style="curved=1;startArrow=none;endArrow=block;rounded=0;" parent="1" source="flESJ9DVj2xyThcato4h-169" target="flESJ9DVj2xyThcato4h-173" edge="1">
          <mxGeometry relative="1" as="geometry" />
        </mxCell>
        <mxCell id="flESJ9DVj2xyThcato4h-333" value="" style="curved=1;startArrow=none;endArrow=block;rounded=0;" parent="1" source="flESJ9DVj2xyThcato4h-226" target="flESJ9DVj2xyThcato4h-199" edge="1">
          <mxGeometry relative="1" as="geometry">
            <Array as="points">
              <mxPoint x="470" y="640" />
              <mxPoint x="480" y="770" />
            </Array>
          </mxGeometry>
        </mxCell>
        <mxCell id="flESJ9DVj2xyThcato4h-334" value="" style="curved=1;startArrow=none;endArrow=block;rounded=0;" parent="1" source="flESJ9DVj2xyThcato4h-226" target="flESJ9DVj2xyThcato4h-194" edge="1">
          <mxGeometry relative="1" as="geometry" />
        </mxCell>
        <mxCell id="flESJ9DVj2xyThcato4h-335" value="" style="curved=1;startArrow=none;endArrow=block;rounded=0;" parent="1" source="flESJ9DVj2xyThcato4h-170" target="flESJ9DVj2xyThcato4h-225" edge="1">
          <mxGeometry relative="1" as="geometry" />
        </mxCell>
        <mxCell id="flESJ9DVj2xyThcato4h-336" value="" style="curved=1;startArrow=none;endArrow=block;rounded=0;" parent="1" source="flESJ9DVj2xyThcato4h-170" target="flESJ9DVj2xyThcato4h-199" edge="1">
          <mxGeometry relative="1" as="geometry">
            <Array as="points">
              <mxPoint x="650" y="600" />
            </Array>
          </mxGeometry>
        </mxCell>
      </root>
    </mxGraphModel>
  </diagram>
</mxfile>
